<svg width="160" height="160" viewBox="0 0 160 160" fill="none" xmlns="http://www.w3.org/2000/svg">
<rect width="160" height="160" fill="url(#paint0_linear_5_8)"/>
<g filter="url(#filter0_d_5_8)">
<path d="M20.648 143.72C19.24 143.72 18.008 143.603 16.952 143.368C15.896 143.192 14.9573 142.928 14.136 142.576V135.888C15.0747 136.123 16.072 136.328 17.128 136.504C18.184 136.68 19.2987 136.768 20.472 136.768C21.9387 136.768 23.3173 136.475 24.608 135.888C25.9573 135.301 27.0427 134.275 27.864 132.808C28.6853 131.341 29.096 129.288 29.096 126.648V64.168H37.016V126.032C37.016 130.08 36.3413 133.395 34.992 135.976C33.6427 138.616 31.736 140.552 29.272 141.784C26.808 143.075 23.9333 143.72 20.648 143.72ZM71.5505 64.168C76.7718 64.168 81.1425 64.6667 84.6625 65.664C88.2412 66.6613 90.9105 68.304 92.6705 70.592C94.4892 72.88 95.3985 75.9307 95.3985 79.744C95.3985 82.208 94.9292 84.408 93.9905 86.344C93.1105 88.2213 91.7612 89.8053 89.9425 91.096C88.1825 92.328 86.0118 93.1787 83.4305 93.648V94.088C86.0705 94.4987 88.4465 95.2613 90.5585 96.376C92.7292 97.4907 94.4305 99.0747 95.6625 101.128C96.8945 103.181 97.5105 105.851 97.5105 109.136C97.5105 112.949 96.6305 116.205 94.8705 118.904C93.1105 121.544 90.5878 123.568 87.3025 124.976C84.0758 126.325 80.2038 127 75.6865 127H53.5985V64.168H71.5505ZM73.1345 90.92C78.5318 90.92 82.2278 90.0693 84.2225 88.368C86.2172 86.608 87.2145 84.0267 87.2145 80.624C87.2145 77.1627 85.9825 74.6987 83.5185 73.232C81.1132 71.7067 77.2412 70.944 71.9025 70.944H61.5185V90.92H73.1345ZM61.5185 97.52V120.312H74.1905C79.7638 120.312 83.6358 119.227 85.8065 117.056C87.9772 114.885 89.0625 112.04 89.0625 108.52C89.0625 106.291 88.5638 104.355 87.5665 102.712C86.6278 101.069 85.0145 99.808 82.7265 98.928C80.4972 97.9893 77.4465 97.52 73.5745 97.52H61.5185Z" fill="white"/>
</g>
<defs>
<filter id="filter0_d_5_8" x="14.136" y="60.168" width="88.3745" height="83.552" filterUnits="userSpaceOnUse" color-interpolation-filters="sRGB">
<feFlood flood-opacity="0" result="BackgroundImageFix"/>
<feColorMatrix in="SourceAlpha" type="matrix" values="0 0 0 0 0 0 0 0 0 0 0 0 0 0 0 0 0 0 127 0" result="hardAlpha"/>
<feOffset dx="3" dy="-2"/>
<feGaussianBlur stdDeviation="1"/>
<feComposite in2="hardAlpha" operator="out"/>
<feColorMatrix type="matrix" values="0 0 0 0 0 0 0 0 0 0 0 0 0 0 0 0 0 0 0.25 0"/>
<feBlend mode="normal" in2="BackgroundImageFix" result="effect1_dropShadow_5_8"/>
<feBlend mode="normal" in="SourceGraphic" in2="effect1_dropShadow_5_8" result="shape"/>
</filter>
<linearGradient id="paint0_linear_5_8" x1="0" y1="160" x2="160" y2="0" gradientUnits="userSpaceOnUse">
<stop offset="0.3" stop-color="#E91E63"/>
<stop offset="1" stop-color="#3F51B5"/>
</linearGradient>
</defs>
</svg>
