<svg width="16" height="16" viewBox="0 0 16 16" fill="none" xmlns="http://www.w3.org/2000/svg">
<path d="M6.57333 1.33334C6.06765 1.33334 5.58268 1.53422 5.22511 1.89179C4.86754 2.24936 4.66666 2.73432 4.66666 3.24V4.36H7.52666C7.78666 4.36 8 4.74 8 5H3.24C2.73432 5 2.24935 5.20088 1.89178 5.55845C1.53421 5.91602 1.33333 6.40099 1.33333 6.90667V9.42734C1.33333 9.93302 1.53421 10.418 1.89178 10.7756C2.24935 11.1331 2.73432 11.334 3.24 11.334H4.02666V9.54734C4.02578 9.29726 4.07428 9.04948 4.16937 8.81819C4.26446 8.5869 4.40428 8.37666 4.5808 8.19952C4.75732 8.02238 4.96707 7.88183 5.19802 7.78593C5.42897 7.69003 5.67659 7.64067 5.92666 7.64067H9.42666C10.48 7.64067 11.3333 6.79334 11.3333 5.74V3.24C11.3333 2.73432 11.1324 2.24936 10.7749 1.89179C10.4173 1.53422 9.93234 1.33334 9.42666 1.33334H6.57333ZM6.09333 2.40667C6.36 2.40667 6.57333 2.48667 6.57333 2.88C6.57333 3.27334 6.36 3.474 6.09333 3.474C5.83333 3.474 5.62 3.274 5.62 2.88067C5.62 2.48734 5.83333 2.40667 6.09333 2.40667Z" fill="#0288D1"/>
<path d="M11.9727 4.66666V6.45333C11.9734 6.70335 11.9249 6.95106 11.8298 7.18227C11.7346 7.41348 11.5948 7.62365 11.4183 7.80071C11.2418 7.97778 11.0321 8.11827 10.8011 8.21413C10.5702 8.30999 10.3227 8.35933 10.0727 8.35933H6.57332C6.32325 8.35845 6.07547 8.40695 5.84418 8.50204C5.61289 8.59713 5.40265 8.73695 5.22551 8.91347C5.04837 9.08998 4.90782 9.29973 4.81192 9.53069C4.71602 9.76164 4.66665 10.0093 4.66666 10.2593V12.7593C4.66666 13.265 4.86754 13.75 5.22511 14.1075C5.58268 14.4651 6.06764 14.666 6.57332 14.666H9.42666C9.93222 14.666 10.4171 14.4652 10.7746 14.1078C11.1322 13.7504 11.3331 13.2656 11.3333 12.76V11.64H8.47266C8.21266 11.64 7.99999 11.26 7.99999 11H12.76C13.2657 11 13.7506 10.7991 14.1082 10.4415C14.4658 10.084 14.6667 9.59901 14.6667 9.09333V6.57333C14.6667 6.06765 14.4658 5.58268 14.1082 5.22511C13.7506 4.86754 13.2657 4.66666 12.76 4.66666H11.9727ZM5.54666 7.67533L5.54399 7.678L5.56932 7.67533H5.54666ZM9.90666 12.526C10.1667 12.526 10.38 12.726 10.38 13.1193C10.38 13.1815 10.3677 13.243 10.344 13.3005C10.3202 13.3579 10.2853 13.4101 10.2414 13.454C10.1974 13.498 10.1452 13.5328 10.0878 13.5566C10.0304 13.5804 9.96882 13.5927 9.90666 13.5927C9.63999 13.5927 9.42666 13.5127 9.42666 13.1193C9.42666 12.726 9.63999 12.526 9.90666 12.526Z" fill="#FDD835"/>
</svg>
