<svg width="16" height="16" viewBox="0 0 16 16" fill="none" xmlns="http://www.w3.org/2000/svg">
<path fill-rule="evenodd" clip-rule="evenodd" d="M6.07188 14.911C6.84357 14.911 7.6077 14.759 8.32064 14.4637C9.03359 14.1684 9.68139 13.7355 10.227 13.1899C10.7727 12.6442 11.2056 11.9964 11.5009 11.2835C11.7962 10.5705 11.9482 9.8064 11.9482 9.03471C11.9482 8.26302 11.7962 7.4989 11.5009 6.78595C11.2056 6.073 10.7727 5.42521 10.227 4.87954C9.68139 4.33388 9.03359 3.90103 8.32064 3.60572C7.6077 3.31041 6.84357 3.15841 6.07188 3.15841C4.51339 3.15841 3.01873 3.77752 1.91671 4.87954C0.814691 5.98156 0.195583 7.47622 0.195583 9.03471C0.195583 10.5932 0.814691 12.0879 1.91671 13.1899C3.01873 14.2919 4.51339 14.911 6.07188 14.911ZM6.07188 15.1798C6.88515 15.1896 7.69228 15.0379 8.44649 14.7334C9.20069 14.429 9.88697 13.9779 10.4655 13.4062C11.0441 12.8346 11.5035 12.1538 11.817 11.4033C12.1305 10.6528 12.2919 9.8476 12.2919 9.03426C12.2919 8.22093 12.1305 7.41569 11.817 6.66521C11.5035 5.91473 11.0441 5.23394 10.4655 4.6623C9.88697 4.09067 9.20069 3.63955 8.44649 3.33511C7.69228 3.03067 6.88515 2.87895 6.07188 2.88875C4.45482 2.90824 2.9106 3.5643 1.774 4.71469C0.637392 5.86507 0 7.41709 0 9.03426C0 10.6514 0.637392 12.2035 1.774 13.3538C2.9106 14.5042 4.45482 15.1603 6.07188 15.1798Z" fill="#3F51B5"/>
<path d="M1.15546 7.75873C1.29743 7.64087 1.51977 7.5605 1.79836 7.69712C1.97337 7.79177 2.21446 7.96678 2.45019 8.14626C2.92344 8.50075 3.39668 8.85523 3.39668 8.50075C3.39668 7.96678 4.20031 7.96678 4.46908 8.50075C4.58248 8.72755 4.54944 8.90256 4.5164 9.09632C4.47354 9.35616 4.42711 9.64011 4.73338 10.1035C5.0459 10.5661 5.0834 11.4742 5.11734 12.159C5.14055 12.6609 5.1593 13.043 5.26824 13.043C5.53701 13.043 6.34063 11.7054 6.60583 11.1715C6.8746 10.6375 6.8746 10.1035 6.60583 9.83834C6.49967 9.72503 6.39722 9.6083 6.29867 9.48831C5.93436 9.06328 5.40039 8.43021 5.00394 8.23108C4.46908 7.96678 4.46908 7.16315 5.00394 6.89885C5.15669 6.8246 5.31454 6.76134 5.47629 6.70955C6.06204 6.48632 6.7478 6.2363 6.34063 5.83003C6.05758 5.54608 5.47629 5.41393 5.03162 5.31035C4.63427 5.2157 4.34139 5.15409 4.46461 5.0264C4.61105 4.88443 4.68159 4.49243 4.71463 4.14241C3.85636 4.3816 3.07591 4.84191 2.45132 5.47731C1.82673 6.11271 1.37988 6.90094 1.15546 7.76319V7.75873ZM9.60693 5.39517C10.3865 6.14588 10.9045 7.12702 11.0847 8.1942C11.2649 9.26137 11.0978 10.3582 10.6079 11.3233C10.2824 11.9629 9.82537 12.5264 9.26673 12.9769C9.14351 12.8162 9.13458 12.5278 9.27566 12.2394C9.54621 11.7054 9.27566 10.3732 9.01135 9.56957C8.84616 9.07311 8.5765 9.08739 8.26487 9.11061C8.07558 9.11954 7.87735 9.13382 7.67376 9.03471C7.1398 8.76594 7.67376 7.96678 8.20773 7.42746C8.60061 7.03993 8.70419 6.79438 8.83634 6.48275C8.99439 6.05951 9.26048 5.68448 9.60693 5.39517Z" fill="#3F51B5"/>
<path fill-rule="evenodd" clip-rule="evenodd" d="M6.07189 13.9618C7.04589 13.9614 7.99792 13.6723 8.80777 13.1312C9.61763 12.5901 10.249 11.8211 10.6222 10.9214C11.0268 9.94505 11.1067 8.86441 10.85 7.83915C10.5933 6.81389 10.0136 5.89837 9.19668 5.22781C8.37973 4.55725 7.36878 4.16722 6.31315 4.11532C5.25751 4.06341 4.21317 4.3524 3.33438 4.93958C2.45559 5.52676 1.78895 6.38101 1.43292 7.37614C1.07688 8.37128 1.05034 9.45454 1.35721 10.4659C1.66408 11.4773 2.28809 12.3632 3.13707 12.9927C3.98605 13.6222 5.01498 13.962 6.07189 13.9618ZM6.07189 14.236C6.75475 14.236 7.43093 14.1015 8.06181 13.8401C8.69269 13.5788 9.26593 13.1958 9.74878 12.7129C10.2316 12.2301 10.6147 11.6569 10.876 11.026C11.1373 10.3951 11.2718 9.71891 11.2718 9.03605C11.2718 8.35319 11.1373 7.67701 10.876 7.04613C10.6147 6.41525 10.2316 5.84202 9.74878 5.35916C9.26593 4.8763 8.69269 4.49328 8.06181 4.23196C7.43093 3.97064 6.75475 3.83614 6.07189 3.83614C4.69279 3.83614 3.37017 4.38399 2.395 5.35916C1.41982 6.33433 0.871979 7.65695 0.871979 9.03605C0.871979 10.4152 1.41982 11.7378 2.395 12.7129C3.37017 13.6881 4.69279 14.236 6.07189 14.236Z" fill="#3F51B5"/>
<path d="M1.35906 13.6065C2.87167 15.0574 4.50213 15.2512 5.13611 15.1664C1.89749 9.75887 7.56127 6.1613 10.799 5.03622V4.78085C2.81005 5.40589 1.17958 10.9268 1.35906 13.6065Z" fill="#E91E63"/>
<path fill-rule="evenodd" clip-rule="evenodd" d="M12.0839 2.58873H11.4232C11.409 2.58893 11.3949 2.59195 11.3819 2.59763C11.3689 2.6033 11.3571 2.61151 11.3473 2.62177L10.3543 3.78971C10.2829 3.87007 10.3686 3.98794 10.4677 3.95043L11.2339 3.64684C11.2501 3.64158 11.2673 3.63997 11.2842 3.6421C11.3011 3.64424 11.3173 3.65007 11.3317 3.65919C11.3462 3.66831 11.3584 3.6805 11.3675 3.69487C11.3767 3.70925 11.3826 3.72547 11.3848 3.74238C11.4509 4.32814 11.9187 4.54065 12.2545 4.58798C12.3259 4.59691 12.3777 4.6737 12.3491 4.73977L11.9991 5.59072C11.9661 5.67555 12.0652 5.76038 12.1455 5.71305L13.6394 4.88175C13.6556 4.87307 13.669 4.86001 13.6782 4.84407C13.6874 4.82813 13.6919 4.80994 13.6912 4.79156V4.16741C13.6912 4.12009 13.7198 4.08705 13.7626 4.07276C15.2895 3.47272 15.8797 1.94583 15.9985 1.17078C16.0009 1.15794 16.0005 1.14474 15.9972 1.13209C15.994 1.11944 15.988 1.10765 15.9797 1.09756C15.9719 1.08705 15.9618 1.0784 15.9502 1.07223C15.9387 1.06606 15.9259 1.06251 15.9128 1.06184C13.7671 0.72164 12.5572 1.86547 12.1786 2.53248C12.1694 2.54954 12.1557 2.56379 12.139 2.57369C12.1224 2.5836 12.1033 2.5888 12.0839 2.58873ZM14.5805 2.41908C14.6443 2.42185 14.7081 2.41168 14.7678 2.38917C14.8276 2.36666 14.8822 2.33228 14.9284 2.2881C14.9745 2.24393 15.0112 2.19087 15.0363 2.13212C15.0614 2.07337 15.0743 2.01016 15.0743 1.94628C15.0743 1.8824 15.0614 1.81918 15.0363 1.76044C15.0112 1.70169 14.9745 1.64863 14.9284 1.60445C14.8822 1.56028 14.8276 1.5259 14.7678 1.50339C14.7081 1.48088 14.6443 1.4707 14.5805 1.47348C14.4603 1.48087 14.3474 1.53386 14.2648 1.62163C14.1823 1.7094 14.1363 1.82535 14.1363 1.94583C14.1363 2.06631 14.1823 2.18226 14.2648 2.27003C14.3474 2.3578 14.4603 2.41168 14.5805 2.41908Z" fill="#E91E63"/>
</svg>
