<svg width="16" height="16" viewBox="0 0 16 16" fill="none" xmlns="http://www.w3.org/2000/svg">
<path d="M7.99999 1.33334C4.32666 1.33334 1.33333 4.32667 1.33333 8C1.33333 11.6733 4.32666 14.6667 7.99999 14.6667C11.6733 14.6667 14.6667 11.6733 14.6667 8C14.6667 4.32667 11.6733 1.33334 7.99999 1.33334ZM2.00666 8C2.00666 7.13334 2.19333 6.30667 2.52666 5.56L5.38666 13.3933C3.38666 12.42 2.00666 10.3733 2.00666 8ZM7.99999 13.9933C7.41333 13.9933 6.84666 13.9067 6.30666 13.7467L8.10666 8.52L9.94666 13.5667C9.95999 13.5933 9.97333 13.6267 9.98666 13.6467C9.36666 13.8733 8.69999 13.9933 7.99999 13.9933ZM8.82666 5.18667C9.18666 5.16667 9.51333 5.12667 9.51333 5.12667C9.83333 5.08667 9.79999 4.61334 9.47333 4.63334C9.47333 4.63334 8.49999 4.70667 7.87333 4.70667C7.28666 4.70667 6.29333 4.63334 6.29333 4.63334C5.97333 4.62 5.93333 5.11334 6.25999 5.13334C6.25999 5.13334 6.56666 5.17334 6.88666 5.19334L7.81999 7.75334L6.50666 11.6867L4.32666 5.18667C4.68666 5.17334 5.01333 5.13334 5.01333 5.13334C5.33333 5.09334 5.29999 4.62 4.97333 4.64C4.97333 4.64 3.99999 4.71334 3.37333 4.71334C3.25999 4.71334 3.12666 4.71334 2.98666 4.70667C4.06666 3.08 5.90666 2.00667 7.99999 2.00667C9.55999 2.00667 10.98 2.6 12.0467 3.58C12.02 3.58 11.9933 3.57334 11.9667 3.57334C11.38 3.57334 10.96 4.08667 10.96 4.64C10.96 5.13334 11.2467 5.55334 11.5467 6.04667C11.7733 6.44667 12.04 6.96 12.04 7.7C12.04 8.21334 11.84 8.80667 11.5867 9.64L10.9867 11.64L8.82666 5.18667ZM13.26 5.12667C14.0085 6.49717 14.1925 8.10567 13.7729 9.60979C13.3532 11.1139 12.3632 12.3949 11.0133 13.18L12.8467 7.88667C13.1867 7.03334 13.3 6.34667 13.3 5.74C13.3 5.52 13.2867 5.31334 13.26 5.12667Z" fill="black"/>
</svg>
