<svg width="16" height="16" viewBox="0 0 16 16" fill="none" xmlns="http://www.w3.org/2000/svg">
<g clip-path="url(#clip0_9_70)">
<path d="M7.42375 0.0190015C7.36325 0.0253765 7.17438 0.0477515 7.00775 0.0673765C6.336 0.144002 5.57425 0.345751 4.90575 0.627376C2.48638 1.63825 0.665504 3.85613 0.163129 6.4C0.0448785 7.005 0.0161285 7.30225 0.0161285 8C0.0161285 8.89938 0.105504 9.52 0.342379 10.3043C1.11675 12.8705 3.13275 14.8833 5.70563 15.6606C6.48 15.8945 7.104 15.9839 8 15.9839C8.89938 15.9839 9.52 15.8945 10.3043 15.6576C12.8705 14.8833 14.8833 12.8673 15.6606 10.2944C15.8945 9.52 15.9839 8.896 15.9839 8C15.9839 7.61913 15.9649 7.18413 15.9424 7.02388C15.6831 5.17438 14.9214 3.61913 13.6514 2.34863C12.3838 1.08788 10.835 0.323252 9.02375 0.0640015C8.77425 0.0287515 7.619 -0.00349849 7.42375 0.0190015ZM4.81588 5.059C4.98588 5.11025 5.06538 5.15825 5.18063 5.27338C5.40475 5.50088 5.456 5.6255 5.456 5.96775C5.456 6.22413 5.44625 6.272 5.36963 6.40625C5.22213 6.65575 4.87988 6.88625 4.64313 6.8925C4.4765 6.896 4.48338 6.82225 4.66563 6.63038C4.90875 6.3775 4.94388 6.28163 4.94388 5.90375C4.94088 5.53913 4.896 5.4145 4.7265 5.312C4.5855 5.22563 4.43213 5.232 4.208 5.33738C3.6255 5.61613 2.99513 6.544 2.749 7.49463C2.42238 8.76175 3.0015 9.77588 3.95513 9.603C4.23338 9.55175 4.75825 9.28325 4.98588 9.07175C5.17438 8.89938 5.17438 8.896 5.19338 8.68175C5.23538 8.23338 5.55175 7.78563 5.97463 7.57763C6.16938 7.48138 6.21775 7.47213 6.48 7.47213C6.7295 7.47213 6.78713 7.48488 6.90875 7.55175C7.29588 7.773 7.21588 8.288 6.79688 8.288C6.55375 8.288 6.42875 8.163 6.605 8.09625C6.77788 8.03225 6.71338 7.792 6.51225 7.73775C6.27538 7.67675 6.00638 7.83688 5.83688 8.144C5.63188 8.51525 5.6225 8.957 5.81738 9.15825C6.00638 9.35988 6.24313 9.20025 6.42575 8.74213C6.5215 8.50875 6.65913 8.38375 6.81938 8.38375C6.96 8.38375 6.98588 8.47025 6.92475 8.73288C6.835 9.13913 6.896 9.24463 7.14888 9.12013C7.23188 9.0815 7.36963 8.99225 7.45263 8.92825L7.60938 8.80325L7.71538 8.2495C7.83063 7.62888 7.875 7.54538 8.11188 7.501C8.33938 7.459 8.39063 7.57125 8.30713 7.92625L8.26213 8.125L8.42875 7.955C8.82225 7.55175 9.30563 7.3535 9.47213 7.52C9.5615 7.60938 9.55175 7.72163 9.42388 8.11813C9.36325 8.30713 9.27975 8.605 9.24175 8.77438C9.18413 9.03025 9.18063 9.09125 9.213 9.13288C9.3155 9.25438 9.62888 9.12938 9.90725 8.85738L10.0704 8.69775L10.0899 8.34225C10.1089 7.93263 10.147 7.78563 10.2559 7.65425C10.3584 7.53275 10.544 7.44338 10.6431 7.46875C10.7423 7.49463 10.7423 7.59038 10.6529 7.87213C10.5279 8.25925 10.541 9.15188 10.669 9.15188C10.7203 9.15188 10.9824 8.87688 11.149 8.6465L11.2735 8.4765L11.1744 8.3745C11.0015 8.192 10.96 8.07375 10.96 7.77588C10.96 7.55863 10.9761 7.4785 11.0303 7.3725C11.1201 7.2065 11.2608 7.085 11.4273 7.03663C11.603 6.98238 11.8208 7.07175 11.9101 7.23188C12 7.395 11.9776 7.75975 11.8623 8.00975L11.7793 8.19188H11.8911C12.0449 8.19188 12.1055 8.15375 12.3809 7.8945C12.5249 7.75688 12.6914 7.63825 12.8159 7.58063C13.3056 7.35063 13.8819 7.46875 13.9775 7.82075C14.0575 8.1025 13.8819 8.30075 13.5743 8.27825C13.3535 8.26225 13.312 8.2045 13.44 8.09625C13.6704 7.90375 13.44 7.65775 13.1104 7.74713C12.9311 7.79538 12.7295 7.99663 12.6241 8.2305C12.4126 8.69775 12.5249 9.248 12.8286 9.248C12.9503 9.248 13.165 9.00788 13.248 8.77438C13.3471 8.50538 13.5551 8.336 13.7119 8.39688C13.7984 8.42875 13.8048 8.51513 13.7505 8.78713C13.6895 9.085 13.6801 9.36338 13.728 9.49125C13.7471 9.539 13.8048 9.62888 13.8594 9.6895C13.9614 9.80463 13.9649 9.84625 13.8784 9.90088C13.8369 9.92963 13.7821 9.917 13.648 9.84338C13.4624 9.74713 13.3023 9.57425 13.2446 9.41113L13.2095 9.31538L13.0815 9.41113C13.0078 9.46238 12.8926 9.52 12.8256 9.539C12.56 9.60938 12.2334 9.42725 12.0801 9.12013C12.019 9.00138 12 8.65288 12.0449 8.5185C12.0704 8.44475 12.0704 8.44475 11.9678 8.496C11.9136 8.52488 11.7984 8.55663 11.709 8.56638C11.5615 8.58263 11.539 8.59863 11.3921 8.78413C11.1841 9.04288 10.8159 9.39213 10.6655 9.46588C10.3458 9.6255 10.2403 9.58063 10.1568 9.25088L10.0991 9.03025L9.96138 9.15188C9.78563 9.30563 9.43363 9.49125 9.23188 9.53613C9.04 9.57763 8.835 9.51663 8.75188 9.38863C8.6275 9.19675 8.669 8.7905 8.86713 8.24313C9.01413 7.83688 8.90875 7.83063 8.53763 8.21775C8.26225 8.50875 8.144 8.71675 8.06738 9.04C7.98738 9.376 7.89113 9.4975 7.67388 9.54875C7.5425 9.57763 7.48138 9.4975 7.50738 9.32175L7.52638 9.18063L7.40475 9.26413C7.23188 9.38238 7.01413 9.49125 6.86375 9.53275C6.71338 9.57425 6.51513 9.52975 6.46725 9.44625C6.38088 9.29938 6.38088 9.29938 6.24663 9.40475C5.95513 9.64163 5.53913 9.57425 5.32813 9.26075L5.26063 9.16163L5.04975 9.35688C4.44138 9.91363 3.68013 10.1631 3.11675 9.99025C2.39988 9.773 2.00338 9.15825 2.00975 8.272C2.01275 7.38238 2.40625 6.44488 3.06888 5.7505C3.44338 5.35988 3.79538 5.12938 4.15388 5.043C4.41263 4.979 4.56988 4.98225 4.81588 5.059Z" fill="#00C4CC"/>
<path d="M11.3023 7.3345C11.2319 7.40475 11.2578 7.6865 11.3473 7.86575C11.3921 7.9585 11.44 8.03225 11.456 8.03225C11.4688 8.03225 11.4975 7.9585 11.52 7.86863C11.6 7.53613 11.456 7.18063 11.3023 7.3345Z" fill="#00C4CC"/>
</g>
<defs>
<clipPath id="clip0_9_70">
<rect width="16" height="16" fill="white"/>
</clipPath>
</defs>
</svg>
