<svg width="16" height="16" viewBox="0 0 16 16" fill="none" xmlns="http://www.w3.org/2000/svg">
<path d="M14.1488 7.63125L14.4938 8.805C14.4938 8.805 15.4575 8.59125 15.51 9.23C15.5613 9.87 14.61 10.2975 14.61 10.2975L14.91 11.7063C14.91 11.7063 15.96 10.8562 15.9763 9.6375C15.9763 9.6375 16.0688 8.13875 15.1688 7.7875C14.6038 7.56875 14.1488 7.63125 14.1488 7.63125ZM8.625 12.1062C8.625 12.1062 7.15125 11.4813 6.43125 12.3638C6.3325 12.485 6.23875 12.61 6.145 12.735C6.07 12.8337 5.99625 12.9338 5.915 13.0275C5.84875 13.1038 5.77625 13.1763 5.6925 13.2325C5.61 13.2875 5.51875 13.325 5.4225 13.3462C5.30125 13.3712 5.175 13.3713 5.0525 13.3613C4.87625 13.3463 4.70125 13.3125 4.52875 13.2725C4.4725 13.26 4.41625 13.2462 4.36125 13.2312C4.3475 13.2275 4.3325 13.2237 4.3175 13.22C4.30875 13.2175 4.29 13.2087 4.28125 13.21C4.22875 13.2212 4.3125 13.3125 4.3275 13.33C4.3625 13.3738 4.4 13.415 4.44 13.4537C4.5475 13.5587 4.66875 13.6475 4.80125 13.7162C4.97195 13.8039 5.1586 13.8562 5.35 13.87C5.3675 13.8712 5.3975 13.87 5.4075 13.8863C5.42875 13.9175 5.3725 13.9462 5.34875 13.96C5.31625 13.98 5.2825 13.9975 5.2475 14.0125C5.13375 14.0612 5.0125 14.0913 4.89125 14.1138C4.7825 14.1338 4.67125 14.1462 4.56125 14.155C4.505 14.1587 4.45 14.1625 4.395 14.165C4.36 14.1662 4.3175 14.1575 4.28375 14.17C4.24 14.185 4.29875 14.2275 4.3175 14.24C4.50229 14.3605 4.70531 14.4504 4.91875 14.5063C5.1175 14.5575 5.32625 14.5762 5.53125 14.5537C5.70875 14.535 5.88125 14.485 6.04375 14.4112C6.94875 13.9975 6.87125 13.1313 7.7 13.0663C8.30875 13.0188 9.1725 13.3387 9.1725 13.3387L8.625 12.1062ZM2.1225 4.55625C2.1225 4.55625 0.503752 4.8225 0.0912523 6.26125C-0.434998 8.1 2.17875 8.71375 2.17875 8.71375L2.3425 7.465C2.3425 7.465 0.601252 7.29125 0.702502 6.62375C0.827502 5.80125 2.27375 5.8775 2.27375 5.8775L2.1225 4.55625ZM2.25375 8.90625C2.25375 8.90625 2.005 8.98125 1.63625 9.2375C1.38375 9.41375 1.04875 9.63625 0.726252 10.02C0.565002 10.2113 0.433752 10.4288 0.352502 10.6663C0.296252 10.8275 0.263752 10.9963 0.261252 11.1663C0.261252 11.2025 0.261252 11.2388 0.262502 11.2738C0.263752 11.29 0.263752 11.3813 0.303752 11.3575C0.317502 11.35 0.330002 11.3088 0.337502 11.295C0.368752 11.2375 0.403752 11.1812 0.442502 11.1287C0.586234 10.9255 0.775417 10.7586 0.995002 10.6412C1.02 10.6287 1.0875 10.5725 1.10625 10.6213C1.115 10.645 1.09375 10.6887 1.08625 10.7125C1.075 10.7537 1.065 10.7938 1.055 10.835C1.00875 11.0313 0.975002 11.2312 0.961252 11.4325C0.953752 11.5412 0.952502 11.6525 0.958752 11.7612C0.961252 11.8162 0.967502 11.8713 0.975002 11.9263C0.978752 11.9525 0.983752 11.9788 0.988752 12.005C0.993752 12.0325 1.02 12.0625 1.03875 12.0275C1.04625 12.0125 1.05375 11.9962 1.06125 11.98C1.08125 11.9387 1.10125 11.8975 1.1225 11.8562C1.1825 11.7387 1.2475 11.625 1.31625 11.5125C1.40625 11.3687 1.5025 11.2288 1.60625 11.095C1.725 10.9425 1.855 10.7975 1.99375 10.665C2.14375 10.5225 2.30625 10.3937 2.48125 10.2837C2.585 10.2175 2.695 10.1587 2.80875 10.11L2.25375 8.90625Z" fill="#FCC21B"/>
<path d="M14.9637 10.01C14.81 9.27 14.5987 8.5425 14.3587 7.82625C14.1537 7.21375 13.9512 6.59375 13.5862 6.055C13.4275 5.8225 13.18 5.66 12.8925 5.54625C12.3137 5.31875 11.5737 5.28625 11.0712 5.28125C10.3225 5.275 9.54249 5.44375 8.84124 5.77375C8.59624 6.525 7.89749 8.4275 6.86749 9.2775C6.93124 9.63375 7.00999 9.9875 7.10749 10.3363C7.27874 10.9538 7.50749 11.5612 7.71749 12.1675C7.91999 12.75 8.16124 13.3413 8.59124 13.7975C8.70374 13.9175 8.83624 14.0163 8.96249 14.1213C9.26124 14.37 9.62124 14.525 9.98874 14.6413C10.33 14.75 10.6787 14.84 11.0275 14.9188C11.6537 15.06 12.5537 15.29 13.1637 15.0038C13.4975 14.8475 13.7737 14.62 14 14.3275C14.2337 14.025 14.4225 13.6888 14.5887 13.3438C14.84 12.8175 15.1025 12.2262 15.1425 11.6375C15.1812 11.09 15.075 10.5438 14.9637 10.01ZM11.7 7.96625C12.2625 8.33375 12.9862 8.43125 13.6362 8.395C13.8287 8.385 13.9325 8.405 13.8825 8.62375C13.785 9.0575 13.3712 9.315 12.97 9.405C12.8687 9.4275 12.77 9.4325 12.6737 9.425C12.4812 9.40875 12.295 9.3325 12.1362 9.22125C11.79 8.98 11.5275 8.5725 11.45 8.155C11.4087 7.935 11.49 7.83 11.7 7.96625ZM8.16249 10.2113C8.00124 10.0438 8.08249 9.97 8.26124 9.87625C8.86374 9.56 9.45874 9.08625 9.76874 8.45875C9.88374 8.22625 10.0125 8.27625 10.0925 8.49125C10.245 8.90375 10.225 9.40625 10.0437 9.805C9.95999 9.99 9.83499 10.1563 9.66999 10.2738C9.58749 10.3325 9.49624 10.38 9.39374 10.4137C8.98749 10.5512 8.48124 10.5438 8.16249 10.2113ZM14.11 12.2925C14.055 12.2887 13.985 12.2475 13.9187 12.2025C13.8575 12.1625 13.7975 12.1175 13.7525 12.095C13.5962 12.0163 13.4337 11.9488 13.2675 11.8938C12.7687 11.7288 12.2225 11.7338 11.7237 11.8975C11.3712 12.0138 11.035 12.22 10.7675 12.4762C10.47 12.7612 10.2487 13.1163 9.95999 13.4088C9.92749 13.4413 9.88749 13.4863 9.84624 13.505C9.77124 13.5413 9.68999 13.495 9.67124 13.4188C9.54249 12.895 9.89749 12.1512 10.1587 11.7125C10.455 11.2162 10.8912 10.8125 11.4537 10.645C11.7312 10.5625 12.0275 10.555 12.3112 10.6C13.1475 10.73 14.01 11.3937 14.1787 12.1462C14.1887 12.195 14.175 12.2975 14.11 12.2925Z" fill="#3F51B5"/>
<path d="M9.8175 3.935C9.78125 3.79125 9.6775 3.6625 9.605 3.53625C8.765 2.07375 6.93875 1.36875 5.3175 1.47625C4.81625 1.50875 4.07875 1.5825 3.515 1.84375C3.23375 1.97375 2.99625 2.15 2.85125 2.39125C2.51625 2.95 2.35 3.58125 2.18 4.20375C1.98 4.9325 1.81 5.67125 1.69875 6.41875C1.6025 7.06875 1.5125 7.78625 1.68625 8.43125C1.82375 8.93875 2.12375 9.6575 2.45125 10.0675C2.80875 10.515 3.32125 11.0375 3.87 11.2437C3.975 11.2837 4.08625 11.31 4.19625 11.3313C4.40875 11.3738 4.63375 11.3975 4.85 11.3625C4.98 11.3413 5.11125 11.3275 5.2375 11.2937C5.4875 11.2275 5.7225 11.1463 5.96125 11.05C6.96625 10.6488 7.7775 10.0675 8.31 9.1125C8.54125 8.69875 8.72625 8.2625 8.8925 7.81875C8.9025 7.7925 8.91125 7.7675 8.92125 7.74125C9.1875 7.015 9.35625 6.25875 9.54 5.50875C9.63 5.14125 9.7325 4.77625 9.78125 4.4C9.8025 4.245 9.85625 4.09125 9.8175 3.935ZM2.56375 4.86375C2.79 4.45 3.3275 4.13125 3.805 4.18375C3.885 4.1925 3.96375 4.2125 4.03875 4.2425C4.51125 4.4375 4.79875 4.9025 4.6875 5.3825C4.66375 5.48375 4.59625 5.49875 4.52125 5.435C4.2625 5.21375 4.04875 5.04125 3.695 4.95C3.4075 4.87625 3.08875 4.91375 2.80625 4.98875C2.745 5.005 2.64 5.0625 2.5775 5.035C2.50625 5.005 2.535 4.915 2.56375 4.86375ZM7.76 8.10625C7.62 8.3225 7.43625 8.50875 7.24875 8.68125C7.20375 8.7225 7.15875 8.7625 7.1125 8.80125C6.36875 9.42625 5.35375 9.7375 4.38625 9.50375C4.1225 9.44 3.8375 9.30625 3.62375 9.14C3.45625 9.01 3.2975 8.85125 3.16 8.68875C2.90875 8.39375 2.72375 8.04 2.6025 7.67375C2.5425 7.4925 2.5 7.30625 2.47875 7.1175C2.4725 7.0575 2.39625 6.39875 2.5925 6.48C2.63875 6.49875 2.67875 6.5375 2.7125 6.58125C2.75 6.6275 2.78125 6.67875 2.8125 6.71875C2.9 6.83 2.99 6.94125 3.0825 7.04875C3.39875 7.4125 3.78375 7.7025 4.22375 7.9C4.5225 8.03375 4.8475 8.11 5.1725 8.14125C5.355 8.15875 5.53875 8.1625 5.72125 8.1525C6.3975 8.1175 7.08375 7.92 7.70125 7.64625C7.7525 7.62375 7.815 7.58375 7.8725 7.585C8.0825 7.5875 7.79875 8.04625 7.76 8.10625ZM8.4775 6.27C8.4725 6.3275 8.45 6.41875 8.38 6.405C8.32 6.3925 8.27 6.28625 8.2325 6.23875C8.0575 6.0175 7.71625 5.765 7.385 5.68375C6.97875 5.58375 6.685 5.755 6.285 5.79875C6.16875 5.81125 6.1125 5.76125 6.15625 5.66375C6.3675 5.20125 6.93 4.8425 7.5225 4.93875C7.61625 4.95375 7.70625 4.98125 7.79125 5.0175C8.29625 5.235 8.51375 5.80125 8.4775 6.27Z" fill="#E91E63"/>
</svg>
