<svg width="16" height="16" viewBox="0 0 16 16" fill="none" xmlns="http://www.w3.org/2000/svg">
<path fill-rule="evenodd" clip-rule="evenodd" d="M8 1C9.38447 1 10.7378 1.41054 11.889 2.17971C13.0401 2.94888 13.9373 4.04213 14.4672 5.32122C14.997 6.6003 15.1356 8.00777 14.8655 9.36563C14.5954 10.7235 13.9287 11.9708 12.9497 12.9497C11.9708 13.9287 10.7235 14.5954 9.36563 14.8655C8.00777 15.1356 6.6003 14.997 5.32122 14.4672C4.04213 13.9373 2.94888 13.0401 2.17971 11.889C1.41054 10.7378 1 9.38447 1 8C1 6.14348 1.7375 4.36301 3.05025 3.05025C4.36301 1.7375 6.14348 1 8 1Z" fill="#CC6699"/>
<path d="M12.391 3.996C12.074 2.753 10.0125 2.346 8.0615 3.037C6.83963 3.44752 5.71075 4.09505 4.7395 4.9425C3.665 5.9475 3.4935 6.8225 3.564 7.188C3.814 8.478 5.5805 9.321 6.307 9.9465V9.95C6.093 10.0555 4.525 10.85 4.157 11.66C3.77 12.516 4.2185 13.13 4.516 13.2125C4.96266 13.32 5.43178 13.285 5.85754 13.1124C6.2833 12.9398 6.64434 12.6382 6.89 12.25C7.09318 11.9355 7.22029 11.578 7.26125 11.2059C7.30222 10.8337 7.25591 10.4571 7.126 10.106C7.47586 10.0166 7.83971 9.99572 8.1975 10.0445C9.4255 10.188 9.6665 10.9545 9.6205 11.2755C9.59887 11.3898 9.55288 11.498 9.48567 11.5929C9.41846 11.6878 9.3316 11.7672 9.231 11.8255C9.145 11.879 9.1185 11.897 9.126 11.937C9.1365 11.9945 9.176 11.9925 9.2495 11.98C9.43404 11.9219 9.59664 11.8092 9.71589 11.6569C9.83513 11.5045 9.90543 11.3196 9.9175 11.1265C9.947 10.3765 9.2265 9.5335 7.9505 9.555C7.57988 9.54409 7.21002 9.59478 6.856 9.705L6.802 9.645C6.013 8.8035 4.555 8.208 4.6165 7.0765C4.639 6.665 4.782 5.582 7.4165 4.268C9.5765 3.1915 11.3055 3.488 11.6045 4.1445C12.0315 5.0825 10.6805 6.825 8.4375 7.0765C8.18959 7.12683 7.93353 7.12069 7.68831 7.05855C7.4431 6.9964 7.21502 6.87983 7.021 6.7175C6.903 6.5875 6.8855 6.582 6.8415 6.606C6.77 6.6455 6.8155 6.7605 6.8415 6.8285C6.92741 6.98327 7.04335 7.11934 7.18253 7.22872C7.3217 7.3381 7.48131 7.4186 7.652 7.4655C8.53391 7.65685 9.45366 7.56589 10.281 7.2055C11.6415 6.681 12.7025 5.2185 12.391 3.996ZM6.609 10.3315C6.70783 10.6739 6.70278 11.038 6.5945 11.3775C6.58284 11.4128 6.57 11.4478 6.556 11.4825C6.542 11.5172 6.52684 11.5505 6.5105 11.5825C6.42581 11.7544 6.31686 11.9131 6.187 12.054C5.7805 12.4975 5.212 12.6655 4.9685 12.524C4.7055 12.3715 4.837 11.746 5.3085 11.2475C5.67092 10.8894 6.08859 10.5919 6.5455 10.3665L6.609 10.3315Z" fill="white"/>
</svg>
