<svg width="16" height="16" viewBox="0 0 16 16" fill="none" xmlns="http://www.w3.org/2000/svg">
<g clip-path="url(#clip0_9_85)">
<path d="M12.25 0H3.75C1.67893 0 0 1.67893 0 3.75V12.25C0 14.3211 1.67893 16 3.75 16H12.25C14.3211 16 16 14.3211 16 12.25V3.75C16 1.67893 14.3211 0 12.25 0Z" fill="#007ACC"/>
<path d="M3.53819 8.05306L3.53313 8.70831H5.61563V14.6258H7.08869V8.70831H9.17119V8.06575C9.17119 7.71019 9.16363 7.41306 9.15344 7.40544C9.14581 7.39531 7.8785 7.39019 6.342 7.39275L3.54581 7.40038L3.53819 8.05306ZM12.9104 7.38175C13.3168 7.48338 13.6266 7.66369 13.9111 7.95825C14.0584 8.11575 14.2768 8.40275 14.2946 8.47131C14.2996 8.49163 13.6038 8.95894 13.1822 9.2205C13.1669 9.23069 13.1059 9.16463 13.0374 9.06306C12.8317 8.76338 12.6158 8.63381 12.2856 8.611C11.8006 8.57794 11.4882 8.83194 11.4908 9.25606C11.4908 9.3805 11.5085 9.45413 11.5593 9.55575C11.6659 9.77669 11.8641 9.90875 12.4863 10.1779C13.6317 10.6707 14.1218 10.9958 14.4266 11.4579C14.7669 11.9735 14.8431 12.7964 14.612 13.4084C14.3581 14.0738 13.7282 14.5259 12.8418 14.6758C12.5676 14.724 11.9174 14.7164 11.6228 14.6631C10.9803 14.5488 10.3708 14.2313 9.99488 13.8148C9.84756 13.6523 9.56056 13.2281 9.57838 13.1976C9.58594 13.1875 9.652 13.1469 9.72563 13.1037C9.79675 13.0631 10.066 12.9081 10.3199 12.7608L10.7796 12.4941L10.8761 12.6364C11.0108 12.8421 11.3053 13.124 11.4831 13.2179C11.9936 13.4872 12.6946 13.4491 13.0399 13.1393C13.1873 13.0046 13.2482 12.8649 13.2482 12.6593C13.2482 12.4738 13.2253 12.3926 13.1288 12.2529C13.0044 12.0751 12.7504 11.9253 12.0291 11.6129C11.2038 11.2573 10.8482 11.0364 10.5231 10.6859C10.3352 10.4828 10.1574 10.1576 10.0838 9.88588C10.0228 9.65988 10.0076 9.0935 10.0558 8.86494C10.2259 8.0675 10.8279 7.51131 11.6964 7.34619C11.9784 7.29288 12.6336 7.31319 12.9104 7.38175Z" fill="white"/>
</g>
<defs>
<clipPath id="clip0_9_85">
<rect width="16" height="16" fill="white"/>
</clipPath>
</defs>
</svg>
